<svg width="20" height="20" viewBox="0 0 20 20" fill="none" xmlns="http://www.w3.org/2000/svg">
<g clip-path="url(#clip0_1236_8648)">
<path d="M7.08317 12.2221C7.08317 13.2959 7.95373 14.1665 9.02762 14.1665H10.8332C11.9838 14.1665 12.9165 13.2338 12.9165 12.0832C12.9165 10.9326 11.9838 9.99984 10.8332 9.99984H9.1665C8.01591 9.99984 7.08317 9.0671 7.08317 7.9165C7.08317 6.76591 8.01591 5.83317 9.1665 5.83317H10.9721C12.0459 5.83317 12.9165 6.70373 12.9165 7.77762M9.99984 4.58317V5.83317M9.99984 14.1665V15.4165M18.3332 9.99984C18.3332 14.6022 14.6022 18.3332 9.99984 18.3332C5.39746 18.3332 1.6665 14.6022 1.6665 9.99984C1.6665 5.39746 5.39746 1.6665 9.99984 1.6665C14.6022 1.6665 18.3332 5.39746 18.3332 9.99984Z" stroke="white" stroke-width="1.5" stroke-linecap="round" stroke-linejoin="round"/>
</g>
<defs>
<clipPath id="clip0_1236_8648">
<rect width="20" height="20" fill="white"/>
</clipPath>
</defs>
</svg>
